# Blender v3.4.1 OBJ File: ''
# www.blender.org
mtllib Platzhalter_flieger.mtl
o Cube
v 50.000000 0.861525 -5.000000
v 50.000000 -3.138476 -5.000000
v 50.000000 0.861525 5.000000
v 50.000000 -3.138476 5.000000
v -50.000000 0.861525 -5.000000
v -50.000000 -3.138476 -5.000000
v -50.000000 0.861525 5.000000
v -50.000000 -3.138476 5.000000
vt 0.625000 0.500000
vt 0.875000 0.500000
vt 0.875000 0.750000
vt 0.625000 0.750000
vt 0.375000 0.750000
vt 0.625000 1.000000
vt 0.375000 1.000000
vt 0.375000 0.000000
vt 0.625000 0.000000
vt 0.625000 0.250000
vt 0.375000 0.250000
vt 0.125000 0.500000
vt 0.375000 0.500000
vt 0.125000 0.750000
vn 0.0000 1.0000 0.0000
vn 0.0000 0.0000 1.0000
vn -1.0000 0.0000 0.0000
vn 0.0000 -1.0000 0.0000
vn 1.0000 0.0000 0.0000
vn 0.0000 0.0000 -1.0000
usemtl Material
s off
f 1/1/1 5/2/1 7/3/1 3/4/1
f 4/5/2 3/4/2 7/6/2 8/7/2
f 8/8/3 7/9/3 5/10/3 6/11/3
f 6/12/4 2/13/4 4/5/4 8/14/4
f 2/13/5 1/1/5 3/4/5 4/5/5
f 6/11/6 5/10/6 1/1/6 2/13/6
o Cube.001
v 50.000000 21.646580 -5.000000
v 50.000000 17.646580 -5.000000
v 50.000000 21.646580 5.000000
v 50.000000 17.646580 5.000000
v -50.000000 21.646580 -5.000000
v -50.000000 17.646580 -5.000000
v -50.000000 21.646580 5.000000
v -50.000000 17.646580 5.000000
vt 0.625000 0.500000
vt 0.875000 0.500000
vt 0.875000 0.750000
vt 0.625000 0.750000
vt 0.375000 0.750000
vt 0.625000 1.000000
vt 0.375000 1.000000
vt 0.375000 0.000000
vt 0.625000 0.000000
vt 0.625000 0.250000
vt 0.375000 0.250000
vt 0.125000 0.500000
vt 0.375000 0.500000
vt 0.125000 0.750000
vn 0.0000 1.0000 0.0000
vn 0.0000 0.0000 1.0000
vn -1.0000 0.0000 0.0000
vn 0.0000 -1.0000 0.0000
vn 1.0000 0.0000 0.0000
vn 0.0000 0.0000 -1.0000
usemtl Material
s off
f 9/15/7 13/16/7 15/17/7 11/18/7
f 12/19/8 11/18/8 15/20/8 16/21/8
f 16/22/9 15/23/9 13/24/9 14/25/9
f 14/26/10 10/27/10 12/19/10 16/28/10
f 10/27/11 9/15/11 11/18/11 12/19/11
f 14/25/12 13/24/12 9/15/12 10/27/12
o Cube.002
v -6.000000 -0.687589 17.264215
v -6.000000 9.312411 17.264215
v -6.000000 -0.687589 -22.735785
v -6.000000 9.312411 -22.735785
v 6.000000 -0.687589 17.264215
v 6.000000 9.312411 17.264215
v 6.000000 -0.687589 -22.735785
v 6.000000 9.312411 -22.735785
v -4.800000 9.312411 13.264215
v -4.800000 9.312411 -18.735785
v 4.800000 9.312411 -18.735785
v 4.800000 9.312411 13.264215
v -4.800000 0.772747 13.264215
v -4.800000 0.772747 -18.735785
v 4.800000 0.772747 -18.735785
v 4.800000 0.772747 13.264215
vt 0.375000 0.000000
vt 0.625000 0.000000
vt 0.625000 0.250000
vt 0.375000 0.250000
vt 0.625000 0.500000
vt 0.375000 0.500000
vt 0.625000 0.750000
vt 0.375000 0.750000
vt 0.625000 1.000000
vt 0.375000 1.000000
vt 0.125000 0.500000
vt 0.125000 0.750000
vt 0.625000 0.250000
vt 0.625000 0.500000
vt 0.625000 0.750000
vt 0.625000 0.500000
vt 0.625000 0.750000
vt 0.625000 0.000000
vt 0.625000 1.000000
vt 0.875000 0.500000
vt 0.875000 0.750000
vt 0.625000 0.000000
vt 0.625000 0.250000
vt 0.625000 1.000000
vn -1.0000 0.0000 0.0000
vn 0.0000 0.0000 -1.0000
vn 1.0000 0.0000 0.0000
vn 0.0000 0.0000 1.0000
vn 0.0000 -1.0000 0.0000
vn 0.0000 1.0000 0.0000
usemtl None
s off
f 17/29/13 18/30/13 20/31/13 19/32/13
f 19/32/14 20/31/14 24/33/14 23/34/14
f 23/34/15 24/33/15 22/35/15 21/36/15
f 21/36/16 22/35/16 18/37/16 17/38/16
f 19/39/17 23/34/17 21/36/17 17/40/17
f 24/33/18 20/31/18 26/41/18 27/42/18
f 28/43/13 27/42/13 31/44/13 32/45/13
f 22/35/18 24/33/18 27/42/18 28/43/18
f 20/31/18 18/30/18 25/46/18 26/41/18
f 18/37/18 22/35/18 28/43/18 25/47/18
f 31/44/18 30/48/18 29/49/18 32/45/18
f 26/41/15 25/46/15 29/50/15 30/51/15
f 25/47/14 28/43/14 32/45/14 29/52/14
f 27/42/16 26/41/16 30/51/16 31/44/16
o Cube.003
v 15.000000 15.312411 -35.237301
v 15.000000 13.312411 -35.237301
v 15.000000 15.312411 -25.237301
v 15.000000 13.312411 -25.237301
v -15.000000 15.312411 -35.237301
v -15.000000 13.312411 -35.237301
v -15.000000 15.312411 -25.237301
v -15.000000 13.312411 -25.237301
vt 0.625000 0.500000
vt 0.875000 0.500000
vt 0.875000 0.750000
vt 0.625000 0.750000
vt 0.375000 0.750000
vt 0.625000 1.000000
vt 0.375000 1.000000
vt 0.375000 0.000000
vt 0.625000 0.000000
vt 0.625000 0.250000
vt 0.375000 0.250000
vt 0.125000 0.500000
vt 0.375000 0.500000
vt 0.125000 0.750000
vn 0.0000 1.0000 0.0000
vn 0.0000 0.0000 1.0000
vn -1.0000 0.0000 0.0000
vn 0.0000 -1.0000 0.0000
vn 1.0000 0.0000 0.0000
vn 0.0000 0.0000 -1.0000
usemtl Material
s off
f 33/53/19 37/54/19 39/55/19 35/56/19
f 36/57/20 35/56/20 39/58/20 40/59/20
f 40/60/21 39/61/21 37/62/21 38/63/21
f 38/64/22 34/65/22 36/57/22 40/66/22
f 34/65/23 33/53/23 35/56/23 36/57/23
f 38/63/24 37/62/24 33/53/24 34/65/24
o Cube.004
v -48.844975 -0.739034 4.316821
v -48.844975 19.260967 4.316821
v -48.844975 -0.739034 2.316820
v -48.844975 19.260967 2.316820
v -46.462292 -0.739034 4.316821
v -46.462292 19.260967 4.316821
v -46.462292 -0.739034 2.316820
v -46.462292 19.260967 2.316820
vt 0.375000 0.000000
vt 0.625000 0.000000
vt 0.625000 0.250000
vt 0.375000 0.250000
vt 0.625000 0.500000
vt 0.375000 0.500000
vt 0.625000 0.750000
vt 0.375000 0.750000
vt 0.625000 1.000000
vt 0.375000 1.000000
vt 0.125000 0.500000
vt 0.125000 0.750000
vt 0.875000 0.500000
vt 0.875000 0.750000
vn -1.0000 0.0000 0.0000
vn 0.0000 0.0000 -1.0000
vn 1.0000 0.0000 0.0000
vn 0.0000 0.0000 1.0000
vn 0.0000 -1.0000 0.0000
vn 0.0000 1.0000 0.0000
usemtl None
s off
f 41/67/25 42/68/25 44/69/25 43/70/25
f 43/70/26 44/69/26 48/71/26 47/72/26
f 47/72/27 48/71/27 46/73/27 45/74/27
f 45/74/28 46/73/28 42/75/28 41/76/28
f 43/77/29 47/72/29 45/74/29 41/78/29
f 48/71/30 44/79/30 42/80/30 46/73/30
o Cube.005
v 46.462292 -0.739034 4.316821
v 46.462292 19.260967 4.316821
v 46.462292 -0.739034 2.316820
v 46.462292 19.260967 2.316820
v 48.844975 -0.739034 4.316821
v 48.844975 19.260967 4.316821
v 48.844975 -0.739034 2.316820
v 48.844975 19.260967 2.316820
vt 0.375000 0.000000
vt 0.625000 0.000000
vt 0.625000 0.250000
vt 0.375000 0.250000
vt 0.625000 0.500000
vt 0.375000 0.500000
vt 0.625000 0.750000
vt 0.375000 0.750000
vt 0.625000 1.000000
vt 0.375000 1.000000
vt 0.125000 0.500000
vt 0.125000 0.750000
vt 0.875000 0.500000
vt 0.875000 0.750000
vn -1.0000 0.0000 0.0000
vn 0.0000 0.0000 -1.0000
vn 1.0000 0.0000 0.0000
vn 0.0000 0.0000 1.0000
vn 0.0000 -1.0000 0.0000
vn 0.0000 1.0000 0.0000
usemtl None
s off
f 49/81/31 50/82/31 52/83/31 51/84/31
f 51/84/32 52/83/32 56/85/32 55/86/32
f 55/86/33 56/85/33 54/87/33 53/88/33
f 53/88/34 54/87/34 50/89/34 49/90/34
f 51/91/35 55/86/35 53/88/35 49/92/35
f 56/85/36 52/93/36 50/94/36 54/87/36
o Cube.006
v -48.844975 -0.739034 -1.810304
v -48.844975 19.260967 -1.810304
v -48.844975 -0.739034 -3.810305
v -48.844975 19.260967 -3.810305
v -46.462292 -0.739034 -1.810304
v -46.462292 19.260967 -1.810304
v -46.462292 -0.739034 -3.810305
v -46.462292 19.260967 -3.810305
vt 0.375000 0.000000
vt 0.625000 0.000000
vt 0.625000 0.250000
vt 0.375000 0.250000
vt 0.625000 0.500000
vt 0.375000 0.500000
vt 0.625000 0.750000
vt 0.375000 0.750000
vt 0.625000 1.000000
vt 0.375000 1.000000
vt 0.125000 0.500000
vt 0.125000 0.750000
vt 0.875000 0.500000
vt 0.875000 0.750000
vn -1.0000 0.0000 0.0000
vn 0.0000 0.0000 -1.0000
vn 1.0000 0.0000 0.0000
vn 0.0000 0.0000 1.0000
vn 0.0000 -1.0000 0.0000
vn 0.0000 1.0000 0.0000
usemtl None
s off
f 57/95/37 58/96/37 60/97/37 59/98/37
f 59/98/38 60/97/38 64/99/38 63/100/38
f 63/100/39 64/99/39 62/101/39 61/102/39
f 61/102/40 62/101/40 58/103/40 57/104/40
f 59/105/41 63/100/41 61/102/41 57/106/41
f 64/99/42 60/107/42 58/108/42 62/101/42
o Cube.007
v 46.462292 -0.739034 -1.810304
v 46.462292 19.260967 -1.810304
v 46.462292 -0.739034 -3.810305
v 46.462292 19.260967 -3.810305
v 48.844975 -0.739034 -1.810304
v 48.844975 19.260967 -1.810304
v 48.844975 -0.739034 -3.810305
v 48.844975 19.260967 -3.810305
vt 0.375000 0.000000
vt 0.625000 0.000000
vt 0.625000 0.250000
vt 0.375000 0.250000
vt 0.625000 0.500000
vt 0.375000 0.500000
vt 0.625000 0.750000
vt 0.375000 0.750000
vt 0.625000 1.000000
vt 0.375000 1.000000
vt 0.125000 0.500000
vt 0.125000 0.750000
vt 0.875000 0.500000
vt 0.875000 0.750000
vn -1.0000 0.0000 0.0000
vn 0.0000 0.0000 -1.0000
vn 1.0000 0.0000 0.0000
vn 0.0000 0.0000 1.0000
vn 0.0000 -1.0000 0.0000
vn 0.0000 1.0000 0.0000
usemtl None
s off
f 65/109/43 66/110/43 68/111/43 67/112/43
f 67/112/44 68/111/44 72/113/44 71/114/44
f 71/114/45 72/113/45 70/115/45 69/116/45
f 69/116/46 70/115/46 66/117/46 65/118/46
f 67/119/47 71/114/47 69/116/47 65/120/47
f 72/113/48 68/121/48 66/122/48 70/115/48
o Cube.008
v -2.111417 7.387255 -20.366531
v -2.111417 14.852242 -27.831518
v -2.111417 5.147759 -22.606028
v -2.111417 12.612745 -30.071014
v 2.111417 7.387255 -20.366531
v 2.111417 14.852242 -27.831518
v 2.111417 5.147759 -22.606028
v 2.111417 12.612745 -30.071014
vt 0.375000 0.000000
vt 0.625000 0.000000
vt 0.625000 0.250000
vt 0.375000 0.250000
vt 0.625000 0.500000
vt 0.375000 0.500000
vt 0.625000 0.750000
vt 0.375000 0.750000
vt 0.625000 1.000000
vt 0.375000 1.000000
vt 0.125000 0.500000
vt 0.125000 0.750000
vt 0.875000 0.500000
vt 0.875000 0.750000
vn -1.0000 0.0000 0.0000
vn 0.0000 -0.7071 -0.7071
vn 1.0000 -0.0000 0.0000
vn 0.0000 0.7071 0.7071
vn 0.0000 -0.7071 0.7071
vn 0.0000 0.7071 -0.7071
usemtl None
s off
f 73/123/49 74/124/49 76/125/49 75/126/49
f 75/126/50 76/125/50 80/127/50 79/128/50
f 79/128/51 80/127/51 78/129/51 77/130/51
f 77/130/52 78/129/52 74/131/52 73/132/52
f 75/133/53 79/128/53 77/130/53 73/134/53
f 80/127/54 76/135/54 74/136/54 78/129/54
o Cylinder
v -11.500000 -10.000000 -5.000000
v -8.500000 -10.000000 -5.000000
v -11.500000 -10.975451 -4.903926
v -8.500000 -10.975451 -4.903926
v -11.500000 -11.913418 -4.619398
v -8.500000 -11.913417 -4.619398
v -11.500000 -12.777851 -4.157348
v -8.500000 -12.777851 -4.157348
v -11.500000 -13.535534 -3.535534
v -8.500000 -13.535534 -3.535534
v -11.500000 -14.157349 -2.777851
v -8.500000 -14.157349 -2.777851
v -11.500000 -14.619398 -1.913417
v -8.500000 -14.619398 -1.913417
v -11.500000 -14.903927 -0.975452
v -8.500000 -14.903927 -0.975452
v -11.500000 -15.000000 0.000000
v -8.500000 -15.000000 0.000000
v -11.500000 -14.903927 0.975452
v -8.500000 -14.903927 0.975452
v -11.500000 -14.619398 1.913417
v -8.500000 -14.619398 1.913417
v -11.500000 -14.157349 2.777851
v -8.500000 -14.157349 2.777851
v -11.500000 -13.535534 3.535534
v -8.500000 -13.535534 3.535534
v -11.500000 -12.777851 4.157348
v -8.500000 -12.777851 4.157348
v -11.500000 -11.913418 4.619398
v -8.500000 -11.913417 4.619398
v -11.500000 -10.975451 4.903926
v -8.500000 -10.975451 4.903926
v -11.500000 -10.000000 5.000000
v -8.500000 -10.000000 5.000000
v -11.500000 -9.024549 4.903926
v -8.500000 -9.024549 4.903926
v -11.500000 -8.086583 4.619398
v -8.500000 -8.086582 4.619398
v -11.500000 -7.222149 4.157348
v -8.500000 -7.222149 4.157348
v -11.500000 -6.464466 3.535534
v -8.500000 -6.464466 3.535534
v -11.500000 -5.842652 2.777851
v -8.500000 -5.842652 2.777851
v -11.500000 -5.380602 1.913417
v -8.500000 -5.380602 1.913417
v -11.500000 -5.096074 0.975452
v -8.500000 -5.096074 0.975452
v -11.500000 -5.000000 0.000000
v -8.500000 -5.000000 0.000000
v -11.500000 -5.096074 -0.975452
v -8.500000 -5.096074 -0.975452
v -11.500000 -5.380602 -1.913417
v -8.500000 -5.380602 -1.913417
v -11.500000 -5.842652 -2.777851
v -8.500000 -5.842652 -2.777851
v -11.500000 -6.464466 -3.535534
v -8.500000 -6.464466 -3.535534
v -11.500000 -7.222149 -4.157348
v -8.500000 -7.222149 -4.157348
v -11.500000 -8.086583 -4.619398
v -8.500000 -8.086582 -4.619398
v -11.500000 -9.024549 -4.903926
v -8.500000 -9.024549 -4.903926
vt 1.000000 0.500000
vt 1.000000 1.000000
vt 0.968750 1.000000
vt 0.968750 0.500000
vt 0.937500 1.000000
vt 0.937500 0.500000
vt 0.906250 1.000000
vt 0.906250 0.500000
vt 0.875000 1.000000
vt 0.875000 0.500000
vt 0.843750 1.000000
vt 0.843750 0.500000
vt 0.812500 1.000000
vt 0.812500 0.500000
vt 0.781250 1.000000
vt 0.781250 0.500000
vt 0.750000 1.000000
vt 0.750000 0.500000
vt 0.718750 1.000000
vt 0.718750 0.500000
vt 0.687500 1.000000
vt 0.687500 0.500000
vt 0.656250 1.000000
vt 0.656250 0.500000
vt 0.625000 1.000000
vt 0.625000 0.500000
vt 0.593750 1.000000
vt 0.593750 0.500000
vt 0.562500 1.000000
vt 0.562500 0.500000
vt 0.531250 1.000000
vt 0.531250 0.500000
vt 0.500000 1.000000
vt 0.500000 0.500000
vt 0.468750 1.000000
vt 0.468750 0.500000
vt 0.437500 1.000000
vt 0.437500 0.500000
vt 0.406250 1.000000
vt 0.406250 0.500000
vt 0.375000 1.000000
vt 0.375000 0.500000
vt 0.343750 1.000000
vt 0.343750 0.500000
vt 0.312500 1.000000
vt 0.312500 0.500000
vt 0.281250 1.000000
vt 0.281250 0.500000
vt 0.250000 1.000000
vt 0.250000 0.500000
vt 0.218750 1.000000
vt 0.218750 0.500000
vt 0.187500 1.000000
vt 0.187500 0.500000
vt 0.156250 1.000000
vt 0.156250 0.500000
vt 0.125000 1.000000
vt 0.125000 0.500000
vt 0.093750 1.000000
vt 0.093750 0.500000
vt 0.062500 1.000000
vt 0.062500 0.500000
vt 0.296822 0.485388
vt 0.250000 0.490000
vt 0.203178 0.485388
vt 0.158156 0.471731
vt 0.116663 0.449553
vt 0.080294 0.419706
vt 0.050447 0.383337
vt 0.028269 0.341844
vt 0.014612 0.296822
vt 0.010000 0.250000
vt 0.014612 0.203178
vt 0.028269 0.158156
vt 0.050447 0.116663
vt 0.080294 0.080294
vt 0.116663 0.050447
vt 0.158156 0.028269
vt 0.203178 0.014612
vt 0.250000 0.010000
vt 0.296822 0.014612
vt 0.341844 0.028269
vt 0.383337 0.050447
vt 0.419706 0.080294
vt 0.449553 0.116663
vt 0.471731 0.158156
vt 0.485388 0.203178
vt 0.490000 0.250000
vt 0.485388 0.296822
vt 0.471731 0.341844
vt 0.449553 0.383337
vt 0.419706 0.419706
vt 0.383337 0.449553
vt 0.341844 0.471731
vt 0.031250 1.000000
vt 0.031250 0.500000
vt 0.000000 1.000000
vt 0.000000 0.500000
vt 0.750000 0.490000
vt 0.796822 0.485388
vt 0.841844 0.471731
vt 0.883337 0.449553
vt 0.919706 0.419706
vt 0.949553 0.383337
vt 0.971731 0.341844
vt 0.985388 0.296822
vt 0.990000 0.250000
vt 0.985388 0.203178
vt 0.971731 0.158156
vt 0.949553 0.116663
vt 0.919706 0.080294
vt 0.883337 0.050447
vt 0.841844 0.028269
vt 0.796822 0.014612
vt 0.750000 0.010000
vt 0.703178 0.014612
vt 0.658156 0.028269
vt 0.616663 0.050447
vt 0.580294 0.080294
vt 0.550447 0.116663
vt 0.528269 0.158156
vt 0.514612 0.203178
vt 0.510000 0.250000
vt 0.514612 0.296822
vt 0.528269 0.341844
vt 0.550447 0.383337
vt 0.580294 0.419706
vt 0.616663 0.449553
vt 0.658156 0.471731
vt 0.703178 0.485388
vn 0.0000 -0.0980 -0.9952
vn -0.0000 -0.2903 -0.9569
vn 0.0000 -0.4714 -0.8819
vn 0.0000 -0.6344 -0.7730
vn 0.0000 -0.7730 -0.6344
vn 0.0000 -0.8819 -0.4714
vn 0.0000 -0.9569 -0.2903
vn 0.0000 -0.9952 -0.0980
vn 0.0000 -0.9952 0.0980
vn 0.0000 -0.9569 0.2903
vn 0.0000 -0.8819 0.4714
vn 0.0000 -0.7730 0.6344
vn 0.0000 -0.6344 0.7730
vn 0.0000 -0.4714 0.8819
vn 0.0000 -0.2903 0.9569
vn 0.0000 -0.0980 0.9952
vn 0.0000 0.0980 0.9952
vn 0.0000 0.2903 0.9569
vn 0.0000 0.4714 0.8819
vn 0.0000 0.6344 0.7730
vn 0.0000 0.7730 0.6344
vn 0.0000 0.8819 0.4714
vn 0.0000 0.9569 0.2903
vn 0.0000 0.9952 0.0980
vn 0.0000 0.9952 -0.0980
vn 0.0000 0.9569 -0.2903
vn 0.0000 0.8819 -0.4714
vn 0.0000 0.7730 -0.6344
vn 0.0000 0.6344 -0.7730
vn -0.0000 0.4714 -0.8819
vn 1.0000 0.0000 0.0000
vn 0.0000 0.2903 -0.9569
vn 0.0000 0.0980 -0.9952
vn -1.0000 0.0000 0.0000
usemtl None
s off
f 81/137/55 82/138/55 84/139/55 83/140/55
f 83/140/56 84/139/56 86/141/56 85/142/56
f 85/142/57 86/141/57 88/143/57 87/144/57
f 87/144/58 88/143/58 90/145/58 89/146/58
f 89/146/59 90/145/59 92/147/59 91/148/59
f 91/148/60 92/147/60 94/149/60 93/150/60
f 93/150/61 94/149/61 96/151/61 95/152/61
f 95/152/62 96/151/62 98/153/62 97/154/62
f 97/154/63 98/153/63 100/155/63 99/156/63
f 99/156/64 100/155/64 102/157/64 101/158/64
f 101/158/65 102/157/65 104/159/65 103/160/65
f 103/160/66 104/159/66 106/161/66 105/162/66
f 105/162/67 106/161/67 108/163/67 107/164/67
f 107/164/68 108/163/68 110/165/68 109/166/68
f 109/166/69 110/165/69 112/167/69 111/168/69
f 111/168/70 112/167/70 114/169/70 113/170/70
f 113/170/71 114/169/71 116/171/71 115/172/71
f 115/172/72 116/171/72 118/173/72 117/174/72
f 117/174/73 118/173/73 120/175/73 119/176/73
f 119/176/74 120/175/74 122/177/74 121/178/74
f 121/178/75 122/177/75 124/179/75 123/180/75
f 123/180/76 124/179/76 126/181/76 125/182/76
f 125/182/77 126/181/77 128/183/77 127/184/77
f 127/184/78 128/183/78 130/185/78 129/186/78
f 129/186/79 130/185/79 132/187/79 131/188/79
f 131/188/80 132/187/80 134/189/80 133/190/80
f 133/190/81 134/189/81 136/191/81 135/192/81
f 135/192/82 136/191/82 138/193/82 137/194/82
f 137/194/83 138/193/83 140/195/83 139/196/83
f 139/196/84 140/195/84 142/197/84 141/198/84
f 84/199/85 82/200/85 144/201/85 142/202/85 140/203/85 138/204/85 136/205/85 134/206/85 132/207/85 130/208/85 128/209/85 126/210/85 124/211/85 122/212/85 120/213/85 118/214/85 116/215/85 114/216/85 112/217/85 110/218/85 108/219/85 106/220/85 104/221/85 102/222/85 100/223/85 98/224/85 96/225/85 94/226/85 92/227/85 90/228/85 88/229/85 86/230/85
f 141/198/86 142/197/86 144/231/86 143/232/86
f 143/232/87 144/231/87 82/233/87 81/234/87
f 81/235/88 83/236/88 85/237/88 87/238/88 89/239/88 91/240/88 93/241/88 95/242/88 97/243/88 99/244/88 101/245/88 103/246/88 105/247/88 107/248/88 109/249/88 111/250/88 113/251/88 115/252/88 117/253/88 119/254/88 121/255/88 123/256/88 125/257/88 127/258/88 129/259/88 131/260/88 133/261/88 135/262/88 137/263/88 139/264/88 141/265/88 143/266/88
o Cylinder.001
v 8.500000 -10.000000 -5.000000
v 11.500000 -10.000000 -5.000000
v 8.500000 -10.975451 -4.903926
v 11.500000 -10.975451 -4.903926
v 8.500000 -11.913418 -4.619398
v 11.500000 -11.913417 -4.619398
v 8.500000 -12.777851 -4.157348
v 11.500000 -12.777851 -4.157348
v 8.500000 -13.535534 -3.535534
v 11.500000 -13.535534 -3.535534
v 8.500000 -14.157349 -2.777851
v 11.500000 -14.157349 -2.777851
v 8.500000 -14.619398 -1.913417
v 11.500000 -14.619398 -1.913417
v 8.500000 -14.903927 -0.975452
v 11.500000 -14.903927 -0.975452
v 8.500000 -15.000000 0.000000
v 11.500000 -15.000000 0.000000
v 8.500000 -14.903927 0.975452
v 11.500000 -14.903927 0.975452
v 8.500000 -14.619398 1.913417
v 11.500000 -14.619398 1.913417
v 8.500000 -14.157349 2.777851
v 11.500000 -14.157349 2.777851
v 8.500000 -13.535534 3.535534
v 11.500000 -13.535534 3.535534
v 8.500000 -12.777851 4.157348
v 11.500000 -12.777851 4.157348
v 8.500000 -11.913418 4.619398
v 11.500000 -11.913417 4.619398
v 8.500000 -10.975451 4.903926
v 11.500000 -10.975451 4.903926
v 8.500000 -10.000000 5.000000
v 11.500000 -10.000000 5.000000
v 8.500000 -9.024549 4.903926
v 11.500000 -9.024549 4.903926
v 8.500000 -8.086583 4.619398
v 11.500000 -8.086582 4.619398
v 8.500000 -7.222149 4.157348
v 11.500000 -7.222149 4.157348
v 8.500000 -6.464466 3.535534
v 11.500000 -6.464466 3.535534
v 8.500000 -5.842652 2.777851
v 11.500000 -5.842652 2.777851
v 8.500000 -5.380602 1.913417
v 11.500000 -5.380602 1.913417
v 8.500000 -5.096074 0.975452
v 11.500000 -5.096074 0.975452
v 8.500000 -5.000000 0.000000
v 11.500000 -5.000000 0.000000
v 8.500000 -5.096074 -0.975452
v 11.500000 -5.096074 -0.975452
v 8.500000 -5.380602 -1.913417
v 11.500000 -5.380602 -1.913417
v 8.500000 -5.842652 -2.777851
v 11.500000 -5.842652 -2.777851
v 8.500000 -6.464466 -3.535534
v 11.500000 -6.464466 -3.535534
v 8.500000 -7.222149 -4.157348
v 11.500000 -7.222149 -4.157348
v 8.500000 -8.086583 -4.619398
v 11.500000 -8.086582 -4.619398
v 8.500000 -9.024549 -4.903926
v 11.500000 -9.024549 -4.903926
vt 1.000000 0.500000
vt 1.000000 1.000000
vt 0.968750 1.000000
vt 0.968750 0.500000
vt 0.937500 1.000000
vt 0.937500 0.500000
vt 0.906250 1.000000
vt 0.906250 0.500000
vt 0.875000 1.000000
vt 0.875000 0.500000
vt 0.843750 1.000000
vt 0.843750 0.500000
vt 0.812500 1.000000
vt 0.812500 0.500000
vt 0.781250 1.000000
vt 0.781250 0.500000
vt 0.750000 1.000000
vt 0.750000 0.500000
vt 0.718750 1.000000
vt 0.718750 0.500000
vt 0.687500 1.000000
vt 0.687500 0.500000
vt 0.656250 1.000000
vt 0.656250 0.500000
vt 0.625000 1.000000
vt 0.625000 0.500000
vt 0.593750 1.000000
vt 0.593750 0.500000
vt 0.562500 1.000000
vt 0.562500 0.500000
vt 0.531250 1.000000
vt 0.531250 0.500000
vt 0.500000 1.000000
vt 0.500000 0.500000
vt 0.468750 1.000000
vt 0.468750 0.500000
vt 0.437500 1.000000
vt 0.437500 0.500000
vt 0.406250 1.000000
vt 0.406250 0.500000
vt 0.375000 1.000000
vt 0.375000 0.500000
vt 0.343750 1.000000
vt 0.343750 0.500000
vt 0.312500 1.000000
vt 0.312500 0.500000
vt 0.281250 1.000000
vt 0.281250 0.500000
vt 0.250000 1.000000
vt 0.250000 0.500000
vt 0.218750 1.000000
vt 0.218750 0.500000
vt 0.187500 1.000000
vt 0.187500 0.500000
vt 0.156250 1.000000
vt 0.156250 0.500000
vt 0.125000 1.000000
vt 0.125000 0.500000
vt 0.093750 1.000000
vt 0.093750 0.500000
vt 0.062500 1.000000
vt 0.062500 0.500000
vt 0.296822 0.485388
vt 0.250000 0.490000
vt 0.203178 0.485388
vt 0.158156 0.471731
vt 0.116663 0.449553
vt 0.080294 0.419706
vt 0.050447 0.383337
vt 0.028269 0.341844
vt 0.014612 0.296822
vt 0.010000 0.250000
vt 0.014612 0.203178
vt 0.028269 0.158156
vt 0.050447 0.116663
vt 0.080294 0.080294
vt 0.116663 0.050447
vt 0.158156 0.028269
vt 0.203178 0.014612
vt 0.250000 0.010000
vt 0.296822 0.014612
vt 0.341844 0.028269
vt 0.383337 0.050447
vt 0.419706 0.080294
vt 0.449553 0.116663
vt 0.471731 0.158156
vt 0.485388 0.203178
vt 0.490000 0.250000
vt 0.485388 0.296822
vt 0.471731 0.341844
vt 0.449553 0.383337
vt 0.419706 0.419706
vt 0.383337 0.449553
vt 0.341844 0.471731
vt 0.031250 1.000000
vt 0.031250 0.500000
vt 0.000000 1.000000
vt 0.000000 0.500000
vt 0.750000 0.490000
vt 0.796822 0.485388
vt 0.841844 0.471731
vt 0.883337 0.449553
vt 0.919706 0.419706
vt 0.949553 0.383337
vt 0.971731 0.341844
vt 0.985388 0.296822
vt 0.990000 0.250000
vt 0.985388 0.203178
vt 0.971731 0.158156
vt 0.949553 0.116663
vt 0.919706 0.080294
vt 0.883337 0.050447
vt 0.841844 0.028269
vt 0.796822 0.014612
vt 0.750000 0.010000
vt 0.703178 0.014612
vt 0.658156 0.028269
vt 0.616663 0.050447
vt 0.580294 0.080294
vt 0.550447 0.116663
vt 0.528269 0.158156
vt 0.514612 0.203178
vt 0.510000 0.250000
vt 0.514612 0.296822
vt 0.528269 0.341844
vt 0.550447 0.383337
vt 0.580294 0.419706
vt 0.616663 0.449553
vt 0.658156 0.471731
vt 0.703178 0.485388
vn 0.0000 -0.0980 -0.9952
vn -0.0000 -0.2903 -0.9569
vn 0.0000 -0.4714 -0.8819
vn 0.0000 -0.6344 -0.7730
vn 0.0000 -0.7730 -0.6344
vn 0.0000 -0.8819 -0.4714
vn 0.0000 -0.9569 -0.2903
vn 0.0000 -0.9952 -0.0980
vn 0.0000 -0.9952 0.0980
vn 0.0000 -0.9569 0.2903
vn 0.0000 -0.8819 0.4714
vn 0.0000 -0.7730 0.6344
vn 0.0000 -0.6344 0.7730
vn 0.0000 -0.4714 0.8819
vn 0.0000 -0.2903 0.9569
vn 0.0000 -0.0980 0.9952
vn 0.0000 0.0980 0.9952
vn 0.0000 0.2903 0.9569
vn 0.0000 0.4714 0.8819
vn 0.0000 0.6344 0.7730
vn 0.0000 0.7730 0.6344
vn 0.0000 0.8819 0.4714
vn 0.0000 0.9569 0.2903
vn 0.0000 0.9952 0.0980
vn 0.0000 0.9952 -0.0980
vn 0.0000 0.9569 -0.2903
vn 0.0000 0.8819 -0.4714
vn 0.0000 0.7730 -0.6344
vn 0.0000 0.6344 -0.7730
vn -0.0000 0.4714 -0.8819
vn 1.0000 -0.0000 0.0000
vn 0.0000 0.2903 -0.9569
vn 0.0000 0.0980 -0.9952
vn -1.0000 0.0000 0.0000
usemtl None
s off
f 145/267/89 146/268/89 148/269/89 147/270/89
f 147/270/90 148/269/90 150/271/90 149/272/90
f 149/272/91 150/271/91 152/273/91 151/274/91
f 151/274/92 152/273/92 154/275/92 153/276/92
f 153/276/93 154/275/93 156/277/93 155/278/93
f 155/278/94 156/277/94 158/279/94 157/280/94
f 157/280/95 158/279/95 160/281/95 159/282/95
f 159/282/96 160/281/96 162/283/96 161/284/96
f 161/284/97 162/283/97 164/285/97 163/286/97
f 163/286/98 164/285/98 166/287/98 165/288/98
f 165/288/99 166/287/99 168/289/99 167/290/99
f 167/290/100 168/289/100 170/291/100 169/292/100
f 169/292/101 170/291/101 172/293/101 171/294/101
f 171/294/102 172/293/102 174/295/102 173/296/102
f 173/296/103 174/295/103 176/297/103 175/298/103
f 175/298/104 176/297/104 178/299/104 177/300/104
f 177/300/105 178/299/105 180/301/105 179/302/105
f 179/302/106 180/301/106 182/303/106 181/304/106
f 181/304/107 182/303/107 184/305/107 183/306/107
f 183/306/108 184/305/108 186/307/108 185/308/108
f 185/308/109 186/307/109 188/309/109 187/310/109
f 187/310/110 188/309/110 190/311/110 189/312/110
f 189/312/111 190/311/111 192/313/111 191/314/111
f 191/314/112 192/313/112 194/315/112 193/316/112
f 193/316/113 194/315/113 196/317/113 195/318/113
f 195/318/114 196/317/114 198/319/114 197/320/114
f 197/320/115 198/319/115 200/321/115 199/322/115
f 199/322/116 200/321/116 202/323/116 201/324/116
f 201/324/117 202/323/117 204/325/117 203/326/117
f 203/326/118 204/325/118 206/327/118 205/328/118
f 148/329/119 146/330/119 208/331/119 206/332/119 204/333/119 202/334/119 200/335/119 198/336/119 196/337/119 194/338/119 192/339/119 190/340/119 188/341/119 186/342/119 184/343/119 182/344/119 180/345/119 178/346/119 176/347/119 174/348/119 172/349/119 170/350/119 168/351/119 166/352/119 164/353/119 162/354/119 160/355/119 158/356/119 156/357/119 154/358/119 152/359/119 150/360/119
f 205/328/120 206/327/120 208/361/120 207/362/120
f 207/362/121 208/361/121 146/363/121 145/364/121
f 145/365/122 147/366/122 149/367/122 151/368/122 153/369/122 155/370/122 157/371/122 159/372/122 161/373/122 163/374/122 165/375/122 167/376/122 169/377/122 171/378/122 173/379/122 175/380/122 177/381/122 179/382/122 181/383/122 183/384/122 185/385/122 187/386/122 189/387/122 191/388/122 193/389/122 195/390/122 197/391/122 199/392/122 201/393/122 203/394/122 205/395/122 207/396/122
o Cylinder.002
v -10.000000 -10.000001 -1.000000
v 10.000000 -9.999999 -1.000000
v -10.000000 -10.195091 -0.980785
v 10.000000 -10.195089 -0.980785
v -10.000000 -10.382684 -0.923880
v 10.000000 -10.382683 -0.923880
v -10.000000 -10.555571 -0.831470
v 10.000000 -10.555570 -0.831470
v -10.000000 -10.707108 -0.707107
v 10.000000 -10.707106 -0.707107
v -10.000000 -10.831470 -0.555570
v 10.000000 -10.831469 -0.555570
v -10.000000 -10.923881 -0.382683
v 10.000000 -10.923879 -0.382683
v -10.000000 -10.980786 -0.195090
v 10.000000 -10.980784 -0.195090
v -10.000000 -11.000001 0.000000
v 10.000000 -10.999999 0.000000
v -10.000000 -10.980786 0.195090
v 10.000000 -10.980784 0.195090
v -10.000000 -10.923881 0.382683
v 10.000000 -10.923879 0.382683
v -10.000000 -10.831470 0.555570
v 10.000000 -10.831469 0.555570
v -10.000000 -10.707108 0.707107
v 10.000000 -10.707106 0.707107
v -10.000000 -10.555571 0.831470
v 10.000000 -10.555570 0.831470
v -10.000000 -10.382684 0.923880
v 10.000000 -10.382683 0.923880
v -10.000000 -10.195091 0.980785
v 10.000000 -10.195089 0.980785
v -10.000000 -10.000001 1.000000
v 10.000000 -9.999999 1.000000
v -10.000000 -9.804911 0.980785
v 10.000000 -9.804909 0.980785
v -10.000000 -9.617317 0.923880
v 10.000000 -9.617316 0.923880
v -10.000000 -9.444430 0.831470
v 10.000000 -9.444429 0.831470
v -10.000000 -9.292894 0.707107
v 10.000000 -9.292892 0.707107
v -10.000000 -9.168531 0.555570
v 10.000000 -9.168530 0.555570
v -10.000000 -9.076121 0.382683
v 10.000000 -9.076119 0.382683
v -10.000000 -9.019216 0.195090
v 10.000000 -9.019214 0.195090
v -10.000000 -9.000001 0.000000
v 10.000000 -8.999999 0.000000
v -10.000000 -9.019216 -0.195090
v 10.000000 -9.019214 -0.195090
v -10.000000 -9.076121 -0.382683
v 10.000000 -9.076119 -0.382683
v -10.000000 -9.168531 -0.555570
v 10.000000 -9.168530 -0.555570
v -10.000000 -9.292894 -0.707107
v 10.000000 -9.292892 -0.707107
v -10.000000 -9.444430 -0.831470
v 10.000000 -9.444429 -0.831470
v -10.000000 -9.617317 -0.923880
v 10.000000 -9.617316 -0.923880
v -10.000000 -9.804911 -0.980785
v 10.000000 -9.804909 -0.980785
vt 1.000000 0.500000
vt 1.000000 1.000000
vt 0.968750 1.000000
vt 0.968750 0.500000
vt 0.937500 1.000000
vt 0.937500 0.500000
vt 0.906250 1.000000
vt 0.906250 0.500000
vt 0.875000 1.000000
vt 0.875000 0.500000
vt 0.843750 1.000000
vt 0.843750 0.500000
vt 0.812500 1.000000
vt 0.812500 0.500000
vt 0.781250 1.000000
vt 0.781250 0.500000
vt 0.750000 1.000000
vt 0.750000 0.500000
vt 0.718750 1.000000
vt 0.718750 0.500000
vt 0.687500 1.000000
vt 0.687500 0.500000
vt 0.656250 1.000000
vt 0.656250 0.500000
vt 0.625000 1.000000
vt 0.625000 0.500000
vt 0.593750 1.000000
vt 0.593750 0.500000
vt 0.562500 1.000000
vt 0.562500 0.500000
vt 0.531250 1.000000
vt 0.531250 0.500000
vt 0.500000 1.000000
vt 0.500000 0.500000
vt 0.468750 1.000000
vt 0.468750 0.500000
vt 0.437500 1.000000
vt 0.437500 0.500000
vt 0.406250 1.000000
vt 0.406250 0.500000
vt 0.375000 1.000000
vt 0.375000 0.500000
vt 0.343750 1.000000
vt 0.343750 0.500000
vt 0.312500 1.000000
vt 0.312500 0.500000
vt 0.281250 1.000000
vt 0.281250 0.500000
vt 0.250000 1.000000
vt 0.250000 0.500000
vt 0.218750 1.000000
vt 0.218750 0.500000
vt 0.187500 1.000000
vt 0.187500 0.500000
vt 0.156250 1.000000
vt 0.156250 0.500000
vt 0.125000 1.000000
vt 0.125000 0.500000
vt 0.093750 1.000000
vt 0.093750 0.500000
vt 0.062500 1.000000
vt 0.062500 0.500000
vt 0.296822 0.485388
vt 0.250000 0.490000
vt 0.203178 0.485388
vt 0.158156 0.471731
vt 0.116663 0.449553
vt 0.080294 0.419706
vt 0.050447 0.383337
vt 0.028269 0.341844
vt 0.014612 0.296822
vt 0.010000 0.250000
vt 0.014612 0.203178
vt 0.028269 0.158156
vt 0.050447 0.116663
vt 0.080294 0.080294
vt 0.116663 0.050447
vt 0.158156 0.028269
vt 0.203178 0.014612
vt 0.250000 0.010000
vt 0.296822 0.014612
vt 0.341844 0.028269
vt 0.383337 0.050447
vt 0.419706 0.080294
vt 0.449553 0.116663
vt 0.471731 0.158156
vt 0.485388 0.203178
vt 0.490000 0.250000
vt 0.485388 0.296822
vt 0.471731 0.341844
vt 0.449553 0.383337
vt 0.419706 0.419706
vt 0.383337 0.449553
vt 0.341844 0.471731
vt 0.031250 1.000000
vt 0.031250 0.500000
vt 0.000000 1.000000
vt 0.000000 0.500000
vt 0.750000 0.490000
vt 0.796822 0.485388
vt 0.841844 0.471731
vt 0.883337 0.449553
vt 0.919706 0.419706
vt 0.949553 0.383337
vt 0.971731 0.341844
vt 0.985388 0.296822
vt 0.990000 0.250000
vt 0.985388 0.203178
vt 0.971731 0.158156
vt 0.949553 0.116663
vt 0.919706 0.080294
vt 0.883337 0.050447
vt 0.841844 0.028269
vt 0.796822 0.014612
vt 0.750000 0.010000
vt 0.703178 0.014612
vt 0.658156 0.028269
vt 0.616663 0.050447
vt 0.580294 0.080294
vt 0.550447 0.116663
vt 0.528269 0.158156
vt 0.514612 0.203178
vt 0.510000 0.250000
vt 0.514612 0.296822
vt 0.528269 0.341844
vt 0.550447 0.383337
vt 0.580294 0.419706
vt 0.616663 0.449553
vt 0.658156 0.471731
vt 0.703178 0.485388
vn 0.0000 -0.0980 -0.9952
vn 0.0000 -0.2903 -0.9569
vn 0.0000 -0.4714 -0.8819
vn 0.0000 -0.6344 -0.7730
vn 0.0000 -0.7730 -0.6344
vn 0.0000 -0.8819 -0.4714
vn 0.0000 -0.9569 -0.2903
vn 0.0000 -0.9952 -0.0980
vn 0.0000 -0.9952 0.0980
vn 0.0000 -0.9569 0.2903
vn 0.0000 -0.8819 0.4714
vn 0.0000 -0.7730 0.6344
vn 0.0000 -0.6344 0.7730
vn 0.0000 -0.4714 0.8819
vn 0.0000 -0.2903 0.9569
vn 0.0000 -0.0980 0.9952
vn -0.0000 0.0980 0.9952
vn -0.0000 0.2903 0.9569
vn -0.0000 0.4714 0.8819
vn -0.0000 0.6344 0.7730
vn -0.0000 0.7730 0.6344
vn -0.0000 0.8819 0.4714
vn -0.0000 0.9569 0.2903
vn -0.0000 0.9952 0.0980
vn -0.0000 0.9952 -0.0980
vn -0.0000 0.9569 -0.2903
vn -0.0000 0.8819 -0.4714
vn -0.0000 0.7730 -0.6344
vn -0.0000 0.6344 -0.7730
vn -0.0000 0.4714 -0.8819
vn 1.0000 -0.0000 0.0000
vn -0.0000 0.2903 -0.9569
vn -0.0000 0.0980 -0.9952
vn -1.0000 0.0000 0.0000
usemtl None
s off
f 209/397/123 210/398/123 212/399/123 211/400/123
f 211/400/124 212/399/124 214/401/124 213/402/124
f 213/402/125 214/401/125 216/403/125 215/404/125
f 215/404/126 216/403/126 218/405/126 217/406/126
f 217/406/127 218/405/127 220/407/127 219/408/127
f 219/408/128 220/407/128 222/409/128 221/410/128
f 221/410/129 222/409/129 224/411/129 223/412/129
f 223/412/130 224/411/130 226/413/130 225/414/130
f 225/414/131 226/413/131 228/415/131 227/416/131
f 227/416/132 228/415/132 230/417/132 229/418/132
f 229/418/133 230/417/133 232/419/133 231/420/133
f 231/420/134 232/419/134 234/421/134 233/422/134
f 233/422/135 234/421/135 236/423/135 235/424/135
f 235/424/136 236/423/136 238/425/136 237/426/136
f 237/426/137 238/425/137 240/427/137 239/428/137
f 239/428/138 240/427/138 242/429/138 241/430/138
f 241/430/139 242/429/139 244/431/139 243/432/139
f 243/432/140 244/431/140 246/433/140 245/434/140
f 245/434/141 246/433/141 248/435/141 247/436/141
f 247/436/142 248/435/142 250/437/142 249/438/142
f 249/438/143 250/437/143 252/439/143 251/440/143
f 251/440/144 252/439/144 254/441/144 253/442/144
f 253/442/145 254/441/145 256/443/145 255/444/145
f 255/444/146 256/443/146 258/445/146 257/446/146
f 257/446/147 258/445/147 260/447/147 259/448/147
f 259/448/148 260/447/148 262/449/148 261/450/148
f 261/450/149 262/449/149 264/451/149 263/452/149
f 263/452/150 264/451/150 266/453/150 265/454/150
f 265/454/151 266/453/151 268/455/151 267/456/151
f 267/456/152 268/455/152 270/457/152 269/458/152
f 212/459/153 210/460/153 272/461/153 270/462/153 268/463/153 266/464/153 264/465/153 262/466/153 260/467/153 258/468/153 256/469/153 254/470/153 252/471/153 250/472/153 248/473/153 246/474/153 244/475/153 242/476/153 240/477/153 238/478/153 236/479/153 234/480/153 232/481/153 230/482/153 228/483/153 226/484/153 224/485/153 222/486/153 220/487/153 218/488/153 216/489/153 214/490/153
f 269/458/154 270/457/154 272/491/154 271/492/154
f 271/492/155 272/491/155 210/493/155 209/494/155
f 209/495/156 211/496/156 213/497/156 215/498/156 217/499/156 219/500/156 221/501/156 223/502/156 225/503/156 227/504/156 229/505/156 231/506/156 233/507/156 235/508/156 237/509/156 239/510/156 241/511/156 243/512/156 245/513/156 247/514/156 249/515/156 251/516/156 253/517/156 255/518/156 257/519/156 259/520/156 261/521/156 263/522/156 265/523/156 267/524/156 269/525/156 271/526/156
o Cube.009
v -3.761135 -12.494896 3.761135
v -3.761135 -2.136072 3.761135
v -3.761135 -12.494896 -3.761135
v -3.761135 -2.136072 -3.761135
v 3.761135 -12.494896 3.761135
v 3.761135 -2.136072 3.761135
v 3.761135 -12.494896 -3.761135
v 3.761135 -2.136072 -3.761135
vt 0.375000 0.000000
vt 0.625000 0.000000
vt 0.625000 0.250000
vt 0.375000 0.250000
vt 0.625000 0.500000
vt 0.375000 0.500000
vt 0.625000 0.750000
vt 0.375000 0.750000
vt 0.625000 1.000000
vt 0.375000 1.000000
vt 0.125000 0.500000
vt 0.125000 0.750000
vt 0.875000 0.500000
vt 0.875000 0.750000
vn -1.0000 0.0000 0.0000
vn 0.0000 0.0000 -1.0000
vn 1.0000 0.0000 0.0000
vn 0.0000 0.0000 1.0000
vn 0.0000 -1.0000 0.0000
vn 0.0000 1.0000 0.0000
usemtl None
s off
f 273/527/157 274/528/157 276/529/157 275/530/157
f 275/530/158 276/529/158 280/531/158 279/532/158
f 279/532/159 280/531/159 278/533/159 277/534/159
f 277/534/160 278/533/160 274/535/160 273/536/160
f 275/537/161 279/532/161 277/534/161 273/538/161
f 280/531/162 276/539/162 274/540/162 278/533/162
